<svg xmlns="http://www.w3.org/2000/svg" width="308" height="308" viewBox="0 0 308 308">
  <g id="Group_6" data-name="Group 6" transform="translate(-3261 -2622)">
    <g id="Group_5" data-name="Group 5" transform="translate(3261 2622)">
      <g id="Group_4" data-name="Group 4" transform="translate(0 0)">
        <rect id="Rectangle_2" data-name="Rectangle 2" width="308" height="308" rx="154" fill="#e5271f"/>
        <path id="Subtraction_2" data-name="Subtraction 2" d="M57.36,35.8a64.636,64.636,0,0,1-12.806-1.278,63.685,63.685,0,0,1-11.928-3.665,63.758,63.758,0,0,1-10.794-5.8,63.864,63.864,0,0,1-9.4-7.681A63.486,63.486,0,0,1,4.669,8.069,62.937,62.937,0,0,1,0,0H8.4c.784,1.4,1.639,2.773,2.54,4.092a56.09,56.09,0,0,0,6.855,8.223A56.416,56.416,0,0,0,26.1,19.1a56.327,56.327,0,0,0,9.535,5.123,56.263,56.263,0,0,0,10.537,3.238,57.106,57.106,0,0,0,11.313,1.129A57.106,57.106,0,0,0,68.8,27.462a56.259,56.259,0,0,0,10.537-3.238A56.326,56.326,0,0,0,88.872,19.1a56.418,56.418,0,0,0,8.308-6.785,56.1,56.1,0,0,0,6.855-8.223c.9-1.319,1.755-2.7,2.539-4.092h8.147a62.931,62.931,0,0,1-4.668,8.069,63.514,63.514,0,0,1-7.759,9.309,63.864,63.864,0,0,1-9.4,7.681,63.749,63.749,0,0,1-10.794,5.8,63.687,63.687,0,0,1-11.928,3.665A64.64,64.64,0,0,1,57.36,35.8Z" transform="translate(157.018 179.004)" fill="#fff"/>
        <text id="agency" transform="translate(13 170)" fill="#fff" font-size="76" font-family="GropledBold, Gropled"><tspan x="0" y="0">agency</tspan></text>
        <path id="Subtraction_4" data-name="Subtraction 4" d="M57.36,0A64.636,64.636,0,0,0,44.554,1.278,63.606,63.606,0,0,0,4.669,27.732,62.939,62.939,0,0,0,0,35.8H8.4c.784-1.4,1.639-2.773,2.54-4.092A56.181,56.181,0,0,1,46.173,8.339a57.254,57.254,0,0,1,22.626,0,56.192,56.192,0,0,1,35.235,23.369c.9,1.319,1.755,2.7,2.539,4.092h8.147a63.02,63.02,0,0,0-12.428-17.378A63.593,63.593,0,0,0,70.167,1.278,64.64,64.64,0,0,0,57.36,0Z" transform="translate(157.018 87.513)" fill="#fff"/>
      </g>
    </g>
  </g>
</svg>
